<?xml version="1.0" standalone="yes"?>
<svg xmlns="http://www.w3.org/2000/svg" width="200" height="200">
<path style="fill:#010101; stroke:none;" d="M0 0L0 117L1 117C1.00935 102.878 -0.0408649 72.4706 12.0039 63.3179C20.3459 56.9788 41.794 61 52 61L157 61C168.91 61 191.071 56.4997 199 67L200 67L200 0L0 0z"/>
<path style="fill:#253866; stroke:none;" d="M13 61L14 62L13 61z"/>
<path style="fill:#4f78dd; stroke:none;" d="M14.6667 61.3333L15.3333 61.6667L14.6667 61.3333z"/>
<path style="fill:#5984ea; stroke:none;" d="M16 61.5363C8.03953 63.4161 6.63707 69.9478 5.71836 77C3.90209 90.9421 3.38942 105.094 1.42052 119C0.542656 125.2 -0.524488 133.901 6.10494 137.427C18.0196 143.765 38.0401 138.063 51 138.001C83.5922 137.844 116.509 137.314 149 135.09C160.96 134.27 174.405 137.175 185.996 133.351C192.804 131.105 193.58 125.181 194.424 119C196.19 106.066 196.752 92.9561 198.285 80C198.969 74.2277 200.613 65.928 193.945 63.0093C181.506 57.5641 158.55 62 145 62L55 62C42.9794 62 27.7251 58.7674 16 61.5363z"/>
<path style="fill:#4f78dd; stroke:none;" d="M22.6667 61.3333L23.3333 61.6667L22.6667 61.3333M25 61L26 62L25 61M27 61L28 62L27 61M29 61L30 62L29 61M31 61L32 62L31 61M33 61L33 62L191 62C178.83 56.8935 157.253 61 144 61L33 61z"/>
<path style="fill:#253866; stroke:none;" d="M191.667 61.3333L192.333 61.6667L191.667 61.3333z"/>
<path style="fill:#4f78dd; stroke:none;" d="M12 62L13 63L12 62M193 62L194 63L193 62z"/>
<path style="fill:#253866; stroke:none;" d="M194 62L194 63L197 64L194 62z"/>
<path style="fill:#4f78dd; stroke:none;" d="M195 63L196 64L195 63z"/>
<path style="fill:#253866; stroke:none;" d="M197 64L198 65L197 64M198 65L199 66L198 65z"/>
<path style="fill:#4f78dd; stroke:none;" d="M198 66L199 75L200 75L198 66M7 67L8 68L7 67z"/>
<path style="fill:#253866; stroke:none;" d="M199 67L200 68L199 67M6 68L7 69L6 68z"/>
<path style="fill:#4f78dd; stroke:none;" d="M6.33333 69.6667L6.66667 70.3333L6.33333 69.6667z"/>
<path style="fill:#253866; stroke:none;" d="M5 70L5 74L6 74L5 70z"/>
<path style="fill:#f9fbfe; stroke:none;" d="M19 115L18 124C30.9437 124 59.2278 117.733 47.5826 98.0941C44.9026 93.5745 32.2263 92.2915 32.9213 87.0247C33.9583 79.1652 46.1362 83.5689 50.6968 81.3966C53.7056 79.9634 53.7646 75.8531 54 73C49.3462 73 44.6484 72.8121 40 73.0401C29.9409 73.5336 17.5999 85.4918 24.7423 95.8951C28.2606 101.02 34.7223 99.2318 38.446 103.279C47.9606 113.619 23.5738 115 19 115z"/>
<path style="fill:#4f78dd; stroke:none;" d="M5 74L5 79L6 79L5 74z"/>
<path style="fill:#253866; stroke:none;" d="M199 75L199 80L200 80L199 75z"/>
<path style="fill:#f9fbfe; stroke:none;" d="M145 120L154 120L156 106L158 106C160.489 114.498 164.978 118.807 174 119L175 111L167 105C169.883 103.728 172.398 102.362 174.467 99.8951C186.685 85.3213 165.468 68.1087 152.6 78.9884C149.94 81.2373 150.195 86.8347 149.728 90C148.254 100.011 146.275 109.963 145 120z"/>
<path style="fill:#253866; stroke:none;" d="M4 78L4 84L5 84L4 78z"/>
<path style="fill:#f9fbfe; stroke:none;" d="M116 121C126.548 121 140.969 124.088 144 112L126 112L127 104C136.376 104 141.478 105.085 144 95L129 95L130 87C139.312 87 146.567 89.0191 148 78L123.589 79.0278L120.414 90L116 121z"/>
<path style="fill:#4f78dd; stroke:none;" d="M198 78L198 83L199 83L198 78z"/>
<path style="fill:#f9fbfe; stroke:none;" d="M96 87L96 88C84.686 91.7541 84.4636 111.204 84 122C96.3572 121.956 89.1272 114.062 96.4336 109.028C99.2387 107.095 103.795 107.827 107 106.517C115.739 102.944 122.929 90.7477 115.351 82.5332C108.456 75.0591 87.4098 79 78 79C77.3261 87.5274 76.7045 99.1096 73.2971 106.996C72.0245 109.941 68.7839 113.917 65.1096 112.593C57.3378 109.792 64.8406 85.1538 66 79C63.5612 79.0019 59.787 78.3843 57.7415 80.0278C54.9296 82.2871 55.2095 88.7341 54.7284 92C53.2994 101.701 47.7968 120.27 63 121.89C89.6022 124.726 75.4824 88.6351 96 87z"/>
<path style="fill:#010101; stroke:none;" d="M199 80C198.992 92.6613 200.112 122.999 189.945 131.721C180.671 139.679 163.212 135.322 152 136.09C115.857 138.565 79.2176 139.098 43 139.985C30.4156 140.294 9.33618 144.219 1 133L0 133L0 200L200 200L200 116L199 80z"/>
<path style="fill:#253866; stroke:none;" d="M198 83L198 90L199 90L198 83z"/>
<path style="fill:#4f78dd; stroke:none;" d="M4 84L4 89L5 89L4 84z"/>
<path style="fill:#5984ea; stroke:none;" d="M159 86L157 98C169.96 97.8913 174.072 86.0117 159 86z"/>
<path style="fill:#253866; stroke:none;" d="M3 87L3 94L4 94L3 87z"/>
<path style="fill:#5984ea; stroke:none;" d="M98 87L96 99C109.767 98.9909 113.746 87.0452 98 87z"/>
<path style="fill:#4f78dd; stroke:none;" d="M197 89L197 93L198 93L197 89z"/>
<path style="fill:#253866; stroke:none;" d="M197 93L197 100L198 100L197 93z"/>
<path style="fill:#4f78dd; stroke:none;" d="M3 94L3 98L4 98L3 94z"/>
<path style="fill:#253866; stroke:none;" d="M2 97L2 103L3 103L2 97z"/>
<path style="fill:#4f78dd; stroke:none;" d="M196 98L196 103L197 103L196 98M2 103L2 108L3 108L2 103z"/>
<path style="fill:#253866; stroke:none;" d="M196 103L196 110L197 110L196 103M1 107L1 113L2 113L1 107z"/>
<path style="fill:#4f78dd; stroke:none;" d="M195 108L195 113L196 113L195 108M1 113L1 119L2 119L1 113z"/>
<path style="fill:#253866; stroke:none;" d="M195 113L195 120L196 120L195 113M0 117L0 122L1 122L0 117z"/>
<path style="fill:#4f78dd; stroke:none;" d="M194 118L194 123L195 123L194 118M0 122L0 126L1 126L0 122z"/>
<path style="fill:#253866; stroke:none;" d="M194 123L194 126L195 126L194 123z"/>
<path style="fill:#4f78dd; stroke:none;" d="M193 126L192 129L193 126M0 127L0 131L1 131L0 127z"/>
<path style="fill:#253866; stroke:none;" d="M193 128L194 129L193 128M192 129L193 130L192 129z"/>
<path style="fill:#4f78dd; stroke:none;" d="M191 130L192 131L191 130z"/>
<path style="fill:#253866; stroke:none;" d="M0 131L2 136L3 136L0 131M190 131L191 132L190 131z"/>
<path style="fill:#4f78dd; stroke:none;" d="M1 132L2 133L1 132M188 132L189 133L188 132z"/>
<path style="fill:#253866; stroke:none;" d="M189 132L190 133L189 132z"/>
<path style="fill:#4f78dd; stroke:none;" d="M186 133L187 134L186 133z"/>
<path style="fill:#253866; stroke:none;" d="M187.667 133.333L188.333 133.667L187.667 133.333z"/>
<path style="fill:#4f78dd; stroke:none;" d="M2 134L3 135L2 134M179 134L179 135L184 135L179 134z"/>
<path style="fill:#253866; stroke:none;" d="M184.667 134.333L185.333 134.667L184.667 134.333z"/>
<path style="fill:#4f78dd; stroke:none;" d="M145 135L145 136L162 136L145 135z"/>
<path style="fill:#253866; stroke:none;" d="M162 135L162 136L181 136L162 135M3 136L4 137L3 136z"/>
<path style="fill:#4f78dd; stroke:none;" d="M111 136L111 137L128 137L111 136z"/>
<path style="fill:#253866; stroke:none;" d="M128 136L128 137L149 137L128 136M4 137L5 138L4 137z"/>
<path style="fill:#4f78dd; stroke:none;" d="M5 137L6 138L5 137M78 137L78 138L95 138L78 137z"/>
<path style="fill:#253866; stroke:none;" d="M95 137L95 138L116 138L95 137M6 138L7 139L6 138z"/>
<path style="fill:#4f78dd; stroke:none;" d="M7.66667 138.333L8.33333 138.667L7.66667 138.333M43 138L43 139L60 139L43 138z"/>
<path style="fill:#253866; stroke:none;" d="M60 138L60 139L82 139L60 138M8 139L8 140L11 140L8 139z"/>
<path style="fill:#4f78dd; stroke:none;" d="M11 139L11 140L15 140L11 139M19 139L19 140L31 140L19 139z"/>
<path style="fill:#253866; stroke:none;" d="M31 139L31 140L49 140L31 139z"/>
</svg>
